<svg width="349" height="67" viewBox="0 0 349 67" fill="none" xmlns="http://www.w3.org/2000/svg">
<rect width="349" height="67" rx="17" fill="#A2EB5E"/>
<path d="M106.879 42.5L103.159 25.7H106.735L109.015 37.076L112.279 25.7H115.567L118.831 37.052L121.111 25.7H124.567L120.871 42.5H117.199L113.887 30.788L110.527 42.5H106.879ZM129.401 42.716C128.505 42.716 127.713 42.556 127.025 42.236C126.337 41.9 125.801 41.444 125.417 40.868C125.033 40.292 124.841 39.628 124.841 38.876C124.841 37.676 125.289 36.748 126.185 36.092C127.097 35.42 128.345 35.084 129.929 35.084C131.017 35.084 132.041 35.252 133.001 35.588V34.676C133.001 33.956 132.777 33.412 132.329 33.044C131.881 32.676 131.225 32.492 130.361 32.492C129.833 32.492 129.265 32.58 128.657 32.756C128.049 32.916 127.345 33.172 126.545 33.524L125.345 31.1C126.337 30.652 127.281 30.316 128.177 30.092C129.089 29.868 130.001 29.756 130.913 29.756C132.593 29.756 133.897 30.164 134.825 30.98C135.769 31.78 136.241 32.916 136.241 34.388V42.5H133.001V41.612C132.489 41.996 131.937 42.276 131.345 42.452C130.753 42.628 130.105 42.716 129.401 42.716ZM127.961 38.804C127.961 39.284 128.169 39.668 128.585 39.956C129.001 40.228 129.553 40.364 130.241 40.364C130.785 40.364 131.289 40.3 131.753 40.172C132.217 40.028 132.633 39.82 133.001 39.548V37.724C132.601 37.564 132.185 37.444 131.753 37.364C131.321 37.284 130.857 37.244 130.361 37.244C129.609 37.244 129.017 37.388 128.585 37.676C128.169 37.948 127.961 38.324 127.961 38.804ZM144.306 42.692C142.914 42.692 141.858 42.38 141.138 41.756C140.434 41.116 140.082 40.188 140.082 38.972V32.732H137.514V29.996H140.082V26.804L143.37 26.06V29.996H146.946V32.732H143.37V38.3C143.37 38.876 143.498 39.292 143.754 39.548C144.01 39.788 144.458 39.908 145.098 39.908C145.418 39.908 145.706 39.892 145.962 39.86C146.234 39.812 146.53 39.732 146.85 39.62V42.332C146.514 42.444 146.09 42.532 145.578 42.596C145.082 42.66 144.658 42.692 144.306 42.692ZM154.385 42.74C153.153 42.74 152.041 42.46 151.049 41.9C150.057 41.324 149.273 40.548 148.697 39.572C148.121 38.58 147.833 37.476 147.833 36.26C147.833 35.028 148.121 33.924 148.697 32.948C149.273 31.972 150.057 31.196 151.049 30.62C152.041 30.044 153.153 29.756 154.385 29.756C155.377 29.756 156.321 29.948 157.217 30.332C158.129 30.716 158.913 31.268 159.569 31.988L157.553 34.124C157.089 33.612 156.601 33.236 156.089 32.996C155.593 32.74 155.049 32.612 154.457 32.612C153.817 32.612 153.241 32.772 152.729 33.092C152.233 33.412 151.833 33.844 151.529 34.388C151.241 34.932 151.097 35.556 151.097 36.26C151.097 36.932 151.241 37.548 151.529 38.108C151.833 38.652 152.249 39.084 152.777 39.404C153.305 39.708 153.889 39.86 154.529 39.86C155.089 39.86 155.609 39.748 156.089 39.524C156.585 39.284 157.057 38.932 157.505 38.468L159.473 40.532C158.833 41.22 158.065 41.764 157.169 42.164C156.273 42.548 155.345 42.74 154.385 42.74ZM161.183 42.5V25.7L164.471 24.98V31.028C165.415 30.18 166.583 29.756 167.975 29.756C168.951 29.756 169.807 29.972 170.543 30.404C171.295 30.82 171.879 31.404 172.295 32.156C172.711 32.892 172.919 33.756 172.919 34.748V42.5H169.631V35.228C169.631 34.412 169.399 33.772 168.935 33.308C168.471 32.828 167.839 32.588 167.039 32.588C166.479 32.588 165.983 32.7 165.551 32.924C165.119 33.132 164.759 33.436 164.471 33.836V42.5H161.183ZM185.661 42.5L178.845 25.7H182.613L187.749 38.924L193.005 25.7H196.605L189.693 42.5H185.661ZM197.816 42.5V29.996H201.104V42.5H197.816ZM199.448 28.508C198.936 28.508 198.496 28.324 198.128 27.956C197.76 27.588 197.576 27.148 197.576 26.636C197.576 26.108 197.76 25.668 198.128 25.316C198.496 24.948 198.936 24.764 199.448 24.764C199.976 24.764 200.416 24.948 200.768 25.316C201.136 25.668 201.32 26.108 201.32 26.636C201.32 27.148 201.136 27.588 200.768 27.956C200.416 28.324 199.976 28.508 199.448 28.508ZM209.459 42.668C208.275 42.668 207.203 42.38 206.243 41.804C205.283 41.228 204.515 40.46 203.939 39.5C203.379 38.524 203.099 37.436 203.099 36.236C203.099 35.036 203.379 33.956 203.939 32.996C204.515 32.02 205.291 31.252 206.267 30.692C207.243 30.116 208.339 29.828 209.555 29.828C210.179 29.828 210.779 29.916 211.355 30.092C211.931 30.252 212.467 30.492 212.963 30.812V25.7L216.251 25.148V42.5H213.011V41.468C211.987 42.268 210.803 42.668 209.459 42.668ZM209.987 39.86C210.595 39.86 211.147 39.764 211.643 39.572C212.155 39.364 212.595 39.06 212.963 38.66V33.788C212.595 33.42 212.155 33.132 211.643 32.924C211.131 32.716 210.579 32.612 209.987 32.612C209.299 32.612 208.675 32.772 208.115 33.092C207.571 33.396 207.139 33.828 206.819 34.388C206.499 34.932 206.339 35.548 206.339 36.236C206.339 36.924 206.499 37.54 206.819 38.084C207.139 38.628 207.571 39.06 208.115 39.38C208.675 39.7 209.299 39.86 209.987 39.86ZM224.936 42.74C223.688 42.74 222.552 42.452 221.528 41.876C220.52 41.3 219.72 40.524 219.128 39.548C218.536 38.572 218.24 37.476 218.24 36.26C218.24 35.044 218.52 33.948 219.08 32.972C219.656 31.996 220.432 31.22 221.408 30.644C222.384 30.068 223.472 29.78 224.672 29.78C225.872 29.78 226.936 30.076 227.864 30.668C228.792 31.26 229.52 32.06 230.048 33.068C230.592 34.076 230.864 35.22 230.864 36.5V37.364H221.6C221.744 37.86 221.976 38.308 222.296 38.708C222.632 39.108 223.04 39.42 223.52 39.644C224.016 39.868 224.544 39.98 225.104 39.98C225.664 39.98 226.176 39.892 226.64 39.716C227.12 39.54 227.528 39.292 227.864 38.972L230.024 40.94C229.256 41.564 228.464 42.02 227.648 42.308C226.848 42.596 225.944 42.74 224.936 42.74ZM221.552 35.012H227.624C227.512 34.516 227.304 34.084 227 33.716C226.712 33.332 226.36 33.036 225.944 32.828C225.544 32.604 225.096 32.492 224.6 32.492C224.088 32.492 223.624 32.596 223.208 32.804C222.792 33.012 222.44 33.308 222.152 33.692C221.88 34.06 221.68 34.5 221.552 35.012ZM239.068 42.74C237.82 42.74 236.692 42.452 235.684 41.876C234.676 41.3 233.876 40.524 233.284 39.548C232.692 38.572 232.396 37.476 232.396 36.26C232.396 35.044 232.684 33.948 233.26 32.972C233.852 31.98 234.652 31.196 235.66 30.62C236.684 30.044 237.82 29.756 239.068 29.756C240.316 29.756 241.444 30.044 242.452 30.62C243.476 31.196 244.276 31.98 244.852 32.972C245.444 33.948 245.74 35.044 245.74 36.26C245.74 37.476 245.444 38.572 244.852 39.548C244.276 40.524 243.484 41.3 242.476 41.876C241.468 42.452 240.332 42.74 239.068 42.74ZM239.068 39.884C239.724 39.884 240.308 39.724 240.82 39.404C241.348 39.084 241.764 38.652 242.068 38.108C242.388 37.548 242.548 36.932 242.548 36.26C242.548 35.572 242.388 34.956 242.068 34.412C241.764 33.868 241.348 33.436 240.82 33.116C240.308 32.78 239.724 32.612 239.068 32.612C238.428 32.612 237.844 32.78 237.316 33.116C236.788 33.436 236.372 33.868 236.068 34.412C235.764 34.956 235.612 35.572 235.612 36.26C235.612 36.932 235.764 37.548 236.068 38.108C236.372 38.652 236.788 39.084 237.316 39.404C237.844 39.724 238.428 39.884 239.068 39.884Z" fill="black"/>
</svg>
